<?xml version="1.0" encoding="UTF-8" standalone="no"?><svg xmlns="http://www.w3.org/2000/svg" xmlns:xlink="http://www.w3.org/1999/xlink" contentScriptType="application/ecmascript" contentStyleType="text/css" height="573px" preserveAspectRatio="none" style="width:913px;height:573px;" version="1.1" viewBox="0 0 913 573" width="913px" zoomAndPan="magnify"><defs><filter height="300%" id="f12qy8e1dmq4hi" width="300%" x="-1" y="-1"><feGaussianBlur result="blurOut" stdDeviation="2.0"/><feColorMatrix in="blurOut" result="blurOut2" type="matrix" values="0 0 0 0 0 0 0 0 0 0 0 0 0 0 0 0 0 0 .4 0"/><feOffset dx="4.0" dy="4.0" in="blurOut2" result="blurOut3"/><feBlend in="SourceGraphic" in2="blurOut3" mode="normal"/></filter></defs><g><!--entity goal--><rect fill="#F8F8F8" filter="url(#f12qy8e1dmq4hi)" height="36.2969" style="stroke: #383838; stroke-width: 1.5;" width="88" x="147.8292" y="8"/><text fill="#000000" font-family="sans-serif" font-size="14" lengthAdjust="spacingAndGlyphs" textLength="68" x="157.8292" y="30.9951">User Data</text><!--entity bizlogic--><rect fill="#F8F8F8" filter="url(#f12qy8e1dmq4hi)" height="36.2969" style="stroke: #383838; stroke-width: 1.5;" width="167" x="41.3292" y="414"/><text fill="#000000" font-family="sans-serif" font-size="14" lengthAdjust="spacingAndGlyphs" textLength="147" x="51.3292" y="436.9951">Abuse business logic</text><!--entity bruteforce--><rect fill="#F8F8F8" filter="url(#f12qy8e1dmq4hi)" height="36.2969" style="stroke: #383838; stroke-width: 1.5;" width="101" x="243.3292" y="414"/><text fill="#000000" font-family="sans-serif" font-size="14" lengthAdjust="spacingAndGlyphs" textLength="81" x="253.3292" y="436.9951">Brute Force</text><!--entity db--><rect fill="#F8F8F8" filter="url(#f12qy8e1dmq4hi)" height="36.2969" style="stroke: #383838; stroke-width: 1.5;" width="129" x="127.3292" y="104"/><text fill="#000000" font-family="sans-serif" font-size="14" lengthAdjust="spacingAndGlyphs" textLength="109" x="137.3292" y="126.9951">Gain DB access</text><!--entity sqli--><rect fill="#F8F8F8" filter="url(#f12qy8e1dmq4hi)" height="36.2969" style="stroke: #383838; stroke-width: 1.5;" width="43" x="92.3292" y="200"/><text fill="#000000" font-family="sans-serif" font-size="14" lengthAdjust="spacingAndGlyphs" textLength="23" x="102.3292" y="222.9951">sqli</text><!--entity remoteapi--><rect fill="#F8F8F8" filter="url(#f12qy8e1dmq4hi)" height="36.2969" style="stroke: #383838; stroke-width: 1.5;" width="200" x="244.8292" y="200"/><text fill="#000000" font-family="sans-serif" font-size="14" lengthAdjust="spacingAndGlyphs" textLength="180" x="254.8292" y="222.9951">Gain access to remote api</text><!--entity xss--><rect fill="#F8F8F8" filter="url(#f12qy8e1dmq4hi)" height="36.2969" style="stroke: #383838; stroke-width: 1.5;" width="43" x="353.3292" y="307"/><text fill="#000000" font-family="sans-serif" font-size="14" lengthAdjust="spacingAndGlyphs" textLength="23" x="363.3292" y="329.9951">xss</text><!--entity csrf--><rect fill="#F8F8F8" filter="url(#f12qy8e1dmq4hi)" height="36.2969" style="stroke: #383838; stroke-width: 1.5;" width="45" x="436.3292" y="307"/><text fill="#000000" font-family="sans-serif" font-size="14" lengthAdjust="spacingAndGlyphs" textLength="25" x="446.3292" y="329.9951">csrf</text><!--entity and--><ellipse cx="608.8292" cy="325" fill="#F8F8F8" filter="url(#f12qy8e1dmq4hi)" rx="8" ry="8" style="stroke: #383838; stroke-width: 2.0;"/><text fill="#000000" font-family="sans-serif" font-size="14" lengthAdjust="spacingAndGlyphs" textLength="26" x="595.8292" y="354.9951">and</text><!--entity authbypass--><rect fill="#F8F8F8" filter="url(#f12qy8e1dmq4hi)" height="36.2969" style="stroke: #383838; stroke-width: 1.5;" width="174" x="521.8292" y="414"/><text fill="#000000" font-family="sans-serif" font-size="14" lengthAdjust="spacingAndGlyphs" textLength="154" x="531.8292" y="436.9951">Authentication Bypass</text><!--entity dns--><rect fill="#F8F8F8" filter="url(#f12qy8e1dmq4hi)" height="36.2969" style="stroke: #383838; stroke-width: 1.5;" width="171" x="731.3292" y="414"/><text fill="#000000" font-family="sans-serif" font-size="14" lengthAdjust="spacingAndGlyphs" textLength="151" x="741.3292" y="436.9951">DNS Rebinding Attack</text><!--entity another--><path d="M364.266,518.5539 C366.8192,512.6854 371.9078,512.6821 375.2651,517.7448 C378.4276,510.5415 383.7515,511.5649 387.9832,516.637 C392.1137,510.6601 395.847,511.2751 399.6778,516.9381 C403.1323,512.1158 406.4198,512.4749 409.5468,517.2741 C413.7985,512.226 417.8821,511.0583 421.9414,517.4819 C425.392,512.7756 431.3064,513.054 433.8272,518.5637 C443.6673,519.8104 445.2713,525.5433 440.0984,533.2157 C445.0885,540.462 444.425,547.3155 434.1783,548.758 C432.2766,555.4596 427.3478,556.7279 422.4141,551.8344 C420.0658,559.4125 415.1788,560.124 409.6476,555.0449 C406.9832,561.0975 402.832,561.5083 398.1511,557.3053 C393.1679,561.7297 389.2241,559.3883 387.8434,553.651 C382.4647,559.66 378.0496,559.6103 374.5068,551.8702 C370.8464,555.694 366.6225,555.6851 364.4441,550.2581 C353.6065,549.7031 350.7541,542.5824 355.6317,533.6759 C350.5081,524.6028 355.1351,519.488 364.266,518.5539 " fill="#F8F8F8" style="stroke: #000000; stroke-width: 1.5;"/><text fill="#000000" font-family="sans-serif" font-size="14" lengthAdjust="spacingAndGlyphs" textLength="56" x="369.8292" y="537.9951">attacker</text><!--link goal to db--><path d="M191.8292,44.0569 C191.8292,59.5126 191.8292,81.8647 191.8292,98.6731 " fill="none" id="goal-db" style="stroke: #383838; stroke-width: 1.0;"/><polygon fill="#383838" points="191.8292,103.6977,195.8292,94.6977,191.8292,98.6977,187.8292,94.6977,191.8292,103.6977" style="stroke: #383838; stroke-width: 1.0;"/><!--link db to sqli--><path d="M177.158,140.0569 C164.3836,155.7791 145.8112,178.6375 132.08,195.5375 " fill="none" id="db-sqli" style="stroke: #383838; stroke-width: 1.0;"/><polygon fill="#383838" points="128.6998,199.6977,137.4796,195.2351,131.8528,195.8171,131.2707,190.1903,128.6998,199.6977" style="stroke: #383838; stroke-width: 1.0;"/><!--link db to remoteapi--><path d="M220.6073,140.0569 C246.49,156.297 284.5076,180.1512 311.6595,197.1877 " fill="none" id="db-remoteapi" style="stroke: #383838; stroke-width: 1.0;"/><polygon fill="#383838" points="315.9204,199.8612,310.423,191.6894,311.6851,197.2036,306.1709,198.4658,315.9204,199.8612" style="stroke: #383838; stroke-width: 1.0;"/><!--link remoteapi to and--><path d="M389.3146,236.0301 C450.3502,260.768 556.82,303.9205 594.8411,319.3306 " fill="none" id="remoteapi-and" style="stroke: #383838; stroke-width: 1.0;"/><polygon fill="#383838" points="599.538,321.2343,592.6996,314.1466,594.9041,319.3562,589.6946,321.5607,599.538,321.2343" style="stroke: #383838; stroke-width: 1.0;"/><!--link and to authbypass--><path d="M608.8292,334.1228 C608.8292,350.4735 608.8292,385.242 608.8292,408.6233 " fill="none" id="and-authbypass" style="stroke: #383838; stroke-width: 1.0;"/><polygon fill="#383838" points="608.8292,413.72,612.8292,404.72,608.8292,408.72,604.8292,404.72,608.8292,413.72" style="stroke: #383838; stroke-width: 1.0;"/><!--link and to dns--><path d="M618.035,329.7357 C645.3782,343.8017 727.2976,385.9429 777.0344,411.5286 " fill="none" id="and-dns" style="stroke: #383838; stroke-width: 1.0;"/><polygon fill="#383838" points="781.7442,413.9515,775.5709,406.2775,777.298,411.6643,771.9113,413.3914,781.7442,413.9515" style="stroke: #383838; stroke-width: 1.0;"/><!--link authbypass to another--><path d="M571.1066,450.0568 C536.0233,466.8502 483.5987,491.9444 445.605,510.131 " fill="none" id="authbypass-another" style="stroke: #383838; stroke-width: 1.0;"/><polygon fill="#383838" points="441.0453,512.3136,450.8902,512.0358,445.5553,510.1548,447.4362,504.8199,441.0453,512.3136" style="stroke: #383838; stroke-width: 1.0;"/><!--link dns to another--><path d="M741.9204,450.0568 C656.293,470.6973 518.6453,503.8772 446.121,521.3593 " fill="none" id="dns-another" style="stroke: #383838; stroke-width: 1.0;"/><polygon fill="#383838" points="441.0134,522.5904,450.7002,524.3696,445.8741,521.4185,448.8252,516.5925,441.0134,522.5904" style="stroke: #383838; stroke-width: 1.0;"/><!--link bruteforce to another--><path d="M312.4223,450.0568 C328.3917,465.5656 351.6509,488.1538 369.8654,505.8429 " fill="none" id="bruteforce-another" style="stroke: #383838; stroke-width: 1.0;"/><polygon fill="#383838" points="373.9062,509.7672,370.2366,500.6275,370.3193,506.2838,364.6631,506.3665,373.9062,509.7672" style="stroke: #383838; stroke-width: 1.0;"/><!--link sqli to another--><path d="M95.6261,236.1459 C55.9598,277.8768 -30.5165,382.2715 23.8292,450 C64.1708,500.276 257.838,522.0015 349.5156,529.5881 " fill="none" id="sqli-another" style="stroke: #383838; stroke-width: 1.0;"/><polygon fill="#383838" points="354.6042,530.0033,345.9594,525.2845,349.6208,529.5966,345.3087,533.258,354.6042,530.0033" style="stroke: #383838; stroke-width: 1.0;"/><!--link remoteapi to bruteforce--><path d="M340.4809,236.2455 C331.222,275.0968 309.5721,365.9413 299.3542,408.8165 " fill="none" id="remoteapi-bruteforce" style="stroke: #383838; stroke-width: 1.0;"/><polygon fill="#383838" points="298.1664,413.8007,304.1439,405.9732,299.3256,408.9369,296.3619,404.1186,298.1664,413.8007" style="stroke: #383838; stroke-width: 1.0;"/><!--link remoteapi to xss--><path d="M349.9183,236.1511 C355.0039,254.2899 362.8407,282.2412 368.3638,301.9404 " fill="none" id="remoteapi-xss" style="stroke: #383838; stroke-width: 1.0;"/><polygon fill="#383838" points="369.7151,306.7599,371.1365,297.0142,368.3651,301.9456,363.4337,299.1742,369.7151,306.7599" style="stroke: #383838; stroke-width: 1.0;"/><!--link remoteapi to bizlogic--><path d="M326.0721,236.2455 C285.7256,275.4916 190.8362,367.7931 147.3342,410.1087 " fill="none" id="remoteapi-bizlogic" style="stroke: #383838; stroke-width: 1.0;"/><polygon fill="#383838" points="143.5388,413.8007,152.7791,410.3923,147.1228,410.3143,147.2008,404.658,143.5388,413.8007" style="stroke: #383838; stroke-width: 1.0;"/><!--link remoteapi to csrf--><path d="M364.1677,236.1511 C383.9026,254.6742 414.5396,283.4299 435.5829,303.1812 " fill="none" id="remoteapi-csrf" style="stroke: #383838; stroke-width: 1.0;"/><polygon fill="#383838" points="439.3958,306.7599,435.571,297.684,435.7501,303.3381,430.0961,303.5172,439.3958,306.7599" style="stroke: #383838; stroke-width: 1.0;"/><!--link xss to another--><path d="M376.83,343.0948 C380.8419,379.3761 389.8951,461.2481 394.6986,504.6891 " fill="none" id="xss-another" style="stroke: #383838; stroke-width: 1.0;"/><polygon fill="#383838" points="395.2627,509.7907,398.2492,500.4056,394.7131,504.821,390.2977,501.2849,395.2627,509.7907" style="stroke: #383838; stroke-width: 1.0;"/><!--link csrf to another--><path d="M453.5225,343.0948 C442.8607,379.4498 418.7741,461.5811 406.0543,504.9536 " fill="none" id="csrf-another" style="stroke: #383838; stroke-width: 1.0;"/><polygon fill="#383838" points="404.6357,509.7907,411.0068,502.2801,406.0428,504.9928,403.3302,500.0288,404.6357,509.7907" style="stroke: #383838; stroke-width: 1.0;"/><!--link bizlogic to another--><path d="M173.6361,450.0568 C223.4088,468.4709 300.1578,496.8652 349.6882,515.1896 " fill="none" id="bizlogic-another" style="stroke: #383838; stroke-width: 1.0;"/><polygon fill="#383838" points="354.3947,516.9308,347.3419,510.0564,349.7054,515.1958,344.5659,517.5593,354.3947,516.9308" style="stroke: #383838; stroke-width: 1.0;"/><!--
@startuml
skinparam monochrome true
skinparam defaultTextAlignment center

agent "User Data" as goal

agent "Abuse business logic" as bizlogic
agent "Brute Force" as bruteforce
agent "Gain DB access" as db

goal - -> db



agent "sqli" as sqli
agent "Gain access to remote api" as remoteapi
agent "xss" as xss
agent "csrf" as csrf 
db - -> sqli
db - -> remoteapi
 

interface "and" as and
remoteapi - -> and

agent "Authentication Bypass" as authbypass
agent "DNS Rebinding Attack" as dns
agent "Brute Force" as bruteforce
agent "Gain DB access" as db
and - -> authbypass
and - -> dns

cloud "attacker" as another
authbypass - -> another
dns - -> another
bruteforce - -> another
sqli - -> another
remoteapi - -> bruteforce
remoteapi - -> xss 
remoteapi - -> bizlogic 
remoteapi - -> csrf 
xss - -> another
csrf - -> another
bizlogic - -> another
@enduml

PlantUML version 1.2019.04(Fri Mar 29 15:44:36 UTC 2019)
(GPL source distribution)
Java Runtime: OpenJDK Runtime Environment
JVM: OpenJDK 64-Bit Server VM
Java Version: 1.8.0_201-heroku-b09
Operating System: Linux
OS Version: 4.4.0-1048-aws
Default Encoding: UTF-8
Language: en
Country: US
--></g></svg>