<?xml version="1.0" encoding="UTF-8" standalone="no"?><svg xmlns="http://www.w3.org/2000/svg" xmlns:xlink="http://www.w3.org/1999/xlink" contentScriptType="application/ecmascript" contentStyleType="text/css" height="669px" preserveAspectRatio="none" style="width:620px;height:669px;" version="1.1" viewBox="0 0 620 669" width="620px" zoomAndPan="magnify"><defs><filter height="300%" id="f1qobcc10vhf8h" width="300%" x="-1" y="-1"><feGaussianBlur result="blurOut" stdDeviation="2.0"/><feColorMatrix in="blurOut" result="blurOut2" type="matrix" values="0 0 0 0 0 0 0 0 0 0 0 0 0 0 0 0 0 0 .4 0"/><feOffset dx="4.0" dy="4.0" in="blurOut2" result="blurOut3"/><feBlend in="SourceGraphic" in2="blurOut3" mode="normal"/></filter></defs><g><!--entity goal--><rect fill="#F8F8F8" filter="url(#f1qobcc10vhf8h)" height="36.2969" style="stroke: #383838; stroke-width: 1.5;" width="88" x="214.5" y="8"/><text fill="#000000" font-family="sans-serif" font-size="14" lengthAdjust="spacingAndGlyphs" textLength="68" x="224.5" y="30.9951">User Data</text><!--entity bizlogic--><rect fill="#F8F8F8" filter="url(#f1qobcc10vhf8h)" height="36.2969" style="stroke: #383838; stroke-width: 1.5;" width="167" x="6" y="104"/><text fill="#000000" font-family="sans-serif" font-size="14" lengthAdjust="spacingAndGlyphs" textLength="147" x="16" y="126.9951">Abuse business logic</text><!--entity bruteforce--><rect fill="#F8F8F8" filter="url(#f1qobcc10vhf8h)" height="36.2969" style="stroke: #383838; stroke-width: 1.5;" width="101" x="208" y="104"/><text fill="#000000" font-family="sans-serif" font-size="14" lengthAdjust="spacingAndGlyphs" textLength="81" x="218" y="126.9951">Brute Force</text><!--entity frontend--><rect fill="#F8F8F8" filter="url(#f1qobcc10vhf8h)" height="36.2969" style="stroke: #383838; stroke-width: 1.5;" width="174" x="344.5" y="104"/><text fill="#000000" font-family="sans-serif" font-size="14" lengthAdjust="spacingAndGlyphs" textLength="154" x="354.5" y="126.9951">Authentication Bypass</text><!--entity getinjection--><rect fill="#F8F8F8" filter="url(#f1qobcc10vhf8h)" height="36.2969" style="stroke: #383838; stroke-width: 1.5;" width="156" x="353.5" y="200"/><text fill="#000000" font-family="sans-serif" font-size="14" lengthAdjust="spacingAndGlyphs" textLength="136" x="363.5" y="222.9951">Check for injections</text><!--entity sqli--><rect fill="#F8F8F8" filter="url(#f1qobcc10vhf8h)" height="36.2969" style="stroke: #383838; stroke-width: 1.5;" width="43" x="184" y="296"/><text fill="#000000" font-family="sans-serif" font-size="14" lengthAdjust="spacingAndGlyphs" textLength="23" x="194" y="318.9951">sqli</text><!--entity inputval--><rect fill="#F8F8F8" filter="url(#f1qobcc10vhf8h)" height="36.2969" style="stroke: #383838; stroke-width: 1.5;" width="189" x="262" y="296"/><text fill="#000000" font-family="sans-serif" font-size="14" lengthAdjust="spacingAndGlyphs" textLength="169" x="272" y="318.9951">improper input validation</text><!--entity xss--><rect fill="#F8F8F8" filter="url(#f1qobcc10vhf8h)" height="36.2969" style="stroke: #383838; stroke-width: 1.5;" width="43" x="486" y="296"/><text fill="#000000" font-family="sans-serif" font-size="14" lengthAdjust="spacingAndGlyphs" textLength="23" x="496" y="318.9951">xss</text><!--entity csrf--><rect fill="#F8F8F8" filter="url(#f1qobcc10vhf8h)" height="36.2969" style="stroke: #383838; stroke-width: 1.5;" width="45" x="564" y="296"/><text fill="#000000" font-family="sans-serif" font-size="14" lengthAdjust="spacingAndGlyphs" textLength="25" x="574" y="318.9951">csrf</text><!--entity and--><ellipse cx="356.5" cy="421" fill="#F8F8F8" filter="url(#f1qobcc10vhf8h)" rx="8" ry="8" style="stroke: #383838; stroke-width: 2.0;"/><text fill="#000000" font-family="sans-serif" font-size="14" lengthAdjust="spacingAndGlyphs" textLength="26" x="343.5" y="450.9951">and</text><!--entity authbypass--><rect fill="#F8F8F8" filter="url(#f1qobcc10vhf8h)" height="36.2969" style="stroke: #383838; stroke-width: 1.5;" width="171" x="193" y="510"/><text fill="#000000" font-family="sans-serif" font-size="14" lengthAdjust="spacingAndGlyphs" textLength="151" x="203" y="532.9951">Front end vulnerability</text><!--entity luck--><rect fill="#F8F8F8" filter="url(#f1qobcc10vhf8h)" height="36.2969" style="stroke: #383838; stroke-width: 1.5;" width="71" x="399" y="510"/><text fill="#000000" font-family="sans-serif" font-size="14" lengthAdjust="spacingAndGlyphs" textLength="51" x="409" y="532.9951">No luck</text><!--entity another--><path d="M244.9368,614.5539 C247.49,608.6854 252.5786,608.6821 255.9359,613.7448 C259.0984,606.5415 264.4223,607.5649 268.654,612.637 C272.7845,606.6601 276.5178,607.2751 280.3486,612.9381 C283.8031,608.1158 287.0906,608.4749 290.2176,613.2741 C294.4693,608.226 298.5529,607.0583 302.6122,613.4819 C306.0628,608.7756 311.9772,609.054 314.498,614.5637 C324.3381,615.8104 325.9421,621.5433 320.7692,629.2157 C325.7593,636.462 325.0958,643.3155 314.8491,644.758 C312.9474,651.4596 308.0186,652.7279 303.0849,647.8344 C300.7366,655.4125 295.8496,656.124 290.3184,651.0449 C287.654,657.0975 283.5028,657.5083 278.8219,653.3053 C273.8387,657.7297 269.8949,655.3883 268.5142,649.651 C263.1355,655.66 258.7204,655.6103 255.1776,647.8702 C251.5172,651.694 247.2933,651.6851 245.1149,646.2581 C234.2773,645.7031 231.4249,638.5824 236.3025,629.6759 C231.1789,620.6028 235.8059,615.488 244.9368,614.5539 " fill="#F8F8F8" style="stroke: #000000; stroke-width: 1.5;"/><text fill="#000000" font-family="sans-serif" font-size="14" lengthAdjust="spacingAndGlyphs" textLength="56" x="250.5" y="633.9951">attacker</text><!--link goal to bizlogic--><path d="M226.7124,44.0569 C198.123,60.297 156.1297,84.1512 126.1384,101.1877 " fill="none" id="goal-bizlogic" style="stroke: #383838; stroke-width: 1.0;"/><polygon fill="#383838" points="121.4319,103.8612,131.2331,102.8939,125.7794,101.3916,127.2817,95.9379,121.4319,103.8612" style="stroke: #383838; stroke-width: 1.0;"/><!--link goal to bruteforce--><path d="M258.5,44.0569 C258.5,59.5126 258.5,81.8647 258.5,98.6731 " fill="none" id="goal-bruteforce" style="stroke: #383838; stroke-width: 1.0;"/><polygon fill="#383838" points="258.5,103.6977,262.5,94.6977,258.5,98.6977,254.5,94.6977,258.5,103.6977" style="stroke: #383838; stroke-width: 1.0;"/><!--link goal to frontend--><path d="M291.04,44.0569 C320.4265,60.3638 363.6473,84.3476 394.3728,101.3976 " fill="none" id="goal-frontend" style="stroke: #383838; stroke-width: 1.0;"/><polygon fill="#383838" points="398.8123,103.8612,392.8835,95.9968,394.4403,101.4352,389.0019,102.992,398.8123,103.8612" style="stroke: #383838; stroke-width: 1.0;"/><!--link frontend to getinjection--><path d="M431.5,140.0569 C431.5,155.5126 431.5,177.8647 431.5,194.6731 " fill="none" id="frontend-getinjection" style="stroke: #383838; stroke-width: 1.0;"/><polygon fill="#383838" points="431.5,199.6977,435.5,190.6977,431.5,194.6977,427.5,190.6977,431.5,199.6977" style="stroke: #383838; stroke-width: 1.0;"/><!--link getinjection to sqli--><path d="M386.7167,236.1322 C348.7092,251.6516 292.8113,274.7844 244.5,296 C240.4758,297.7672 236.2375,299.6747 232.0968,301.5643 " fill="none" id="getinjection-sqli" style="stroke: #383838; stroke-width: 1.0;"/><polygon fill="#383838" points="227.2996,303.7649,237.1478,303.6482,231.8443,301.6802,233.8123,296.3767,227.2996,303.7649" style="stroke: #383838; stroke-width: 1.0;"/><!--link getinjection to inputval--><path d="M417.3931,236.0569 C405.1101,251.7791 387.2519,274.6375 374.0489,291.5375 " fill="none" id="getinjection-inputval" style="stroke: #383838; stroke-width: 1.0;"/><polygon fill="#383838" points="370.7987,295.6977,379.4916,291.0681,373.877,291.7576,373.1875,286.1429,370.7987,295.6977" style="stroke: #383838; stroke-width: 1.0;"/><!--link getinjection to xss--><path d="M445.795,236.0569 C458.2418,251.7791 476.338,274.6375 489.7172,291.5375 " fill="none" id="getinjection-xss" style="stroke: #383838; stroke-width: 1.0;"/><polygon fill="#383838" points="493.0107,295.6977,490.5605,286.1585,489.9072,291.7775,484.2882,291.1241,493.0107,295.6977" style="stroke: #383838; stroke-width: 1.0;"/><!--link getinjection to csrf--><path d="M460.6543,236.0569 C488.9564,253.5859 531.5808,279.9855 559.2263,297.1079 " fill="none" id="getinjection-csrf" style="stroke: #383838; stroke-width: 1.0;"/><polygon fill="#383838" points="563.5302,299.7735,557.9853,291.6339,559.2795,297.1407,553.7727,298.4349,563.5302,299.7735" style="stroke: #383838; stroke-width: 1.0;"/><!--link inputval to and--><path d="M356.5,332.1511 C356.5,353.1164 356.5,387.1907 356.5,406.48 " fill="none" id="inputval-and" style="stroke: #383838; stroke-width: 1.0;"/><polygon fill="#383838" points="356.5,411.9608,360.5,402.9608,356.5,406.9608,352.5,402.9608,356.5,411.9608" style="stroke: #383838; stroke-width: 1.0;"/><!--link and to authbypass--><path d="M349.8498,430.1228 C337.7803,446.6796 311.9442,482.1215 294.9004,505.502 " fill="none" id="and-authbypass" style="stroke: #383838; stroke-width: 1.0;"/><polygon fill="#383838" points="291.8256,509.72,300.3596,504.8036,294.771,505.6796,293.895,500.091,291.8256,509.72" style="stroke: #383838; stroke-width: 1.0;"/><!--link and to luck--><path d="M363.1502,430.1228 C375.2197,446.6796 401.0558,482.1215 418.0996,505.502 " fill="none" id="and-luck" style="stroke: #383838; stroke-width: 1.0;"/><polygon fill="#383838" points="421.1744,509.72,419.105,500.091,418.229,505.6796,412.6404,504.8036,421.1744,509.72" style="stroke: #383838; stroke-width: 1.0;"/><!--link authbypass to another--><path d="M278.5,546.0568 C278.5,561.1746 278.5,583.0194 278.5,600.4959 " fill="none" id="authbypass-another" style="stroke: #383838; stroke-width: 1.0;"/><polygon fill="#383838" points="278.5,605.7672,282.5,596.7672,278.5,600.7672,274.5,596.7672,278.5,605.7672" style="stroke: #383838; stroke-width: 1.0;"/><!--
@startuml
skinparam monochrome true
skinparam defaultTextAlignment center

agent "User Data" as goal

agent "Abuse business logic" as bizlogic
agent "Brute Force" as bruteforce
agent "Authentication Bypass" as frontend

goal - -> bizlogic
goal - -> bruteforce
goal - -> frontend


agent "Check for injections" as getinjection
frontend - -> getinjection
agent "sqli" as sqli
agent "improper input validation" as inputval
agent "xss" as xss
agent "csrf" as csrf 
getinjection - -> sqli
getinjection - -> inputval
getinjection - -> xss
getinjection - -> csrf 

interface "and" as and
inputval - -> and

agent "Front end vulnerability" as authbypass
agent "No luck" as luck
and - -> authbypass
and - -> luck

cloud "attacker" as another
authbypass - -> another
@enduml

PlantUML version 1.2019.04(Fri Mar 29 15:44:36 UTC 2019)
(GPL source distribution)
Java Runtime: OpenJDK Runtime Environment
JVM: OpenJDK 64-Bit Server VM
Java Version: 1.8.0_201-heroku-b09
Operating System: Linux
OS Version: 4.4.0-1048-aws
Default Encoding: UTF-8
Language: en
Country: US
--></g></svg>