<?xml version="1.0" encoding="UTF-8" standalone="no"?><svg xmlns="http://www.w3.org/2000/svg" xmlns:xlink="http://www.w3.org/1999/xlink" contentScriptType="application/ecmascript" contentStyleType="text/css" height="670px" preserveAspectRatio="none" style="width:618px;height:670px;" version="1.1" viewBox="0 0 618 670" width="618px" zoomAndPan="magnify"><defs><filter height="300%" id="f19ppjx3rlyejp" width="300%" x="-1" y="-1"><feGaussianBlur result="blurOut" stdDeviation="2.0"/><feColorMatrix in="blurOut" result="blurOut2" type="matrix" values="0 0 0 0 0 0 0 0 0 0 0 0 0 0 0 0 0 0 .4 0"/><feOffset dx="4.0" dy="4.0" in="blurOut2" result="blurOut3"/><feBlend in="SourceGraphic" in2="blurOut3" mode="normal"/></filter></defs><g><!--entity goal--><rect fill="#F8F8F8" filter="url(#f19ppjx3rlyejp)" height="36.2969" style="stroke: #383838; stroke-width: 1.5;" width="88" x="214.5" y="8"/><text fill="#000000" font-family="sans-serif" font-size="14" lengthAdjust="spacingAndGlyphs" textLength="68" x="224.5" y="30.9951">User Data</text><!--entity bizlogic--><rect fill="#F8F8F8" filter="url(#f19ppjx3rlyejp)" height="36.2969" style="stroke: #383838; stroke-width: 1.5;" width="167" x="6" y="104"/><text fill="#000000" font-family="sans-serif" font-size="14" lengthAdjust="spacingAndGlyphs" textLength="147" x="16" y="126.9951">Abuse business logic</text><!--entity bruteforce--><rect fill="#F8F8F8" filter="url(#f19ppjx3rlyejp)" height="36.2969" style="stroke: #383838; stroke-width: 1.5;" width="101" x="208" y="104"/><text fill="#000000" font-family="sans-serif" font-size="14" lengthAdjust="spacingAndGlyphs" textLength="81" x="218" y="126.9951">Brute Force</text><!--entity frontend--><rect fill="#F8F8F8" filter="url(#f19ppjx3rlyejp)" height="36.2969" style="stroke: #383838; stroke-width: 1.5;" width="171" x="344" y="104"/><text fill="#000000" font-family="sans-serif" font-size="14" lengthAdjust="spacingAndGlyphs" textLength="151" x="354" y="126.9951">Front end vulnerability</text><!--entity getinjection--><rect fill="#F8F8F8" filter="url(#f19ppjx3rlyejp)" height="36.2969" style="stroke: #383838; stroke-width: 1.5;" width="156" x="351.5" y="200"/><text fill="#000000" font-family="sans-serif" font-size="14" lengthAdjust="spacingAndGlyphs" textLength="136" x="361.5" y="222.9951">Check for injections</text><!--entity sqli--><rect fill="#F8F8F8" filter="url(#f19ppjx3rlyejp)" height="36.2969" style="stroke: #383838; stroke-width: 1.5;" width="43" x="182" y="296"/><text fill="#000000" font-family="sans-serif" font-size="14" lengthAdjust="spacingAndGlyphs" textLength="23" x="192" y="318.9951">sqli</text><!--entity inputval--><rect fill="#F8F8F8" filter="url(#f19ppjx3rlyejp)" height="36.2969" style="stroke: #383838; stroke-width: 1.5;" width="189" x="260" y="296"/><text fill="#000000" font-family="sans-serif" font-size="14" lengthAdjust="spacingAndGlyphs" textLength="169" x="270" y="318.9951">improper input validation</text><!--entity xss--><rect fill="#F8F8F8" filter="url(#f19ppjx3rlyejp)" height="36.2969" style="stroke: #383838; stroke-width: 1.5;" width="43" x="484" y="296"/><text fill="#000000" font-family="sans-serif" font-size="14" lengthAdjust="spacingAndGlyphs" textLength="23" x="494" y="318.9951">xss</text><!--entity csrf--><rect fill="#F8F8F8" filter="url(#f19ppjx3rlyejp)" height="36.2969" style="stroke: #383838; stroke-width: 1.5;" width="45" x="562" y="296"/><text fill="#000000" font-family="sans-serif" font-size="14" lengthAdjust="spacingAndGlyphs" textLength="25" x="572" y="318.9951">csrf</text><!--entity and--><ellipse cx="354.5" cy="421" fill="#F8F8F8" filter="url(#f19ppjx3rlyejp)" rx="8" ry="8" style="stroke: #383838; stroke-width: 2.0;"/><text fill="#000000" font-family="sans-serif" font-size="14" lengthAdjust="spacingAndGlyphs" textLength="26" x="341.5" y="450.9951">and</text><!--entity authbypass--><rect fill="#F8F8F8" filter="url(#f19ppjx3rlyejp)" height="36.2969" style="stroke: #383838; stroke-width: 1.5;" width="174" x="188.5" y="510"/><text fill="#000000" font-family="sans-serif" font-size="14" lengthAdjust="spacingAndGlyphs" textLength="154" x="198.5" y="532.9951">Authentication Bypass</text><!--entity luck--><rect fill="#F8F8F8" filter="url(#f19ppjx3rlyejp)" height="36.2969" style="stroke: #383838; stroke-width: 1.5;" width="71" x="398" y="510"/><text fill="#000000" font-family="sans-serif" font-size="14" lengthAdjust="spacingAndGlyphs" textLength="51" x="408" y="532.9951">No luck</text><!--entity another--><path d="M236.0388,614.9329 C240.017,608.848 244.5523,609.3923 248.8561,614.562 C251.4616,606.3753 258.1883,606.1649 262.8976,612.5323 C266.3102,606.2032 270.8269,605.1579 275.5212,611.2273 C279.7928,604.5627 286.4941,605.9249 289.1226,612.8694 C293.6442,606.8121 300.004,606.6661 303.6404,613.8407 C307.7412,608.6915 313.5092,608.873 316.9382,614.6577 C323.9156,618.6955 325.7416,623.6522 319.0336,629.6081 C327.1854,636.6611 325.0771,642.5308 315.8597,646.2764 C313.044,652.833 307.2723,653.8454 302.8289,647.9845 C299.9643,655.2406 294.6742,654.5533 289.998,649.9434 C286.6103,656.3113 281.6447,658.6162 276.0828,652.3352 C271.6493,657.9482 266.3145,655.6199 264.341,649.8073 C259.9859,655.1322 253.3135,655.1795 250.6744,647.9407 C245.578,653.2608 238.2027,653.8464 235.6035,645.2386 C225.4736,645.2365 222.9834,637.6498 227.1847,629.8217 C222.0522,621.3073 226.4172,614.6733 236.0388,614.9329 " fill="#F8F8F8" style="stroke: #000000; stroke-width: 1.5;"/><text fill="#000000" font-family="sans-serif" font-size="14" lengthAdjust="spacingAndGlyphs" textLength="66" x="242.5" y="633.9951">Database</text><!--link goal to bizlogic--><path d="M226.7124,44.0569 C198.123,60.297 156.1297,84.1512 126.1384,101.1877 " fill="none" id="goal-bizlogic" style="stroke: #383838; stroke-width: 1.0;"/><polygon fill="#383838" points="121.4319,103.8612,131.2331,102.8939,125.7794,101.3916,127.2817,95.9379,121.4319,103.8612" style="stroke: #383838; stroke-width: 1.0;"/><!--link goal to bruteforce--><path d="M258.5,44.0569 C258.5,59.5126 258.5,81.8647 258.5,98.6731 " fill="none" id="goal-bruteforce" style="stroke: #383838; stroke-width: 1.0;"/><polygon fill="#383838" points="258.5,103.6977,262.5,94.6977,258.5,98.6977,254.5,94.6977,258.5,103.6977" style="stroke: #383838; stroke-width: 1.0;"/><!--link goal to frontend--><path d="M290.6638,44.0569 C319.7106,60.3638 362.4317,84.3476 392.802,101.3976 " fill="none" id="goal-frontend" style="stroke: #383838; stroke-width: 1.0;"/><polygon fill="#383838" points="397.1902,103.8612,391.3006,95.9674,392.8303,101.4135,387.3842,102.9432,397.1902,103.8612" style="stroke: #383838; stroke-width: 1.0;"/><!--link frontend to getinjection--><path d="M429.5,140.0569 C429.5,155.5126 429.5,177.8647 429.5,194.6731 " fill="none" id="frontend-getinjection" style="stroke: #383838; stroke-width: 1.0;"/><polygon fill="#383838" points="429.5,199.6977,433.5,190.6977,429.5,194.6977,425.5,190.6977,429.5,199.6977" style="stroke: #383838; stroke-width: 1.0;"/><!--link getinjection to sqli--><path d="M384.7167,236.1322 C346.7092,251.6516 290.8113,274.7844 242.5,296 C238.4758,297.7672 234.2375,299.6747 230.0968,301.5643 " fill="none" id="getinjection-sqli" style="stroke: #383838; stroke-width: 1.0;"/><polygon fill="#383838" points="225.2996,303.7649,235.1478,303.6482,229.8443,301.6802,231.8123,296.3767,225.2996,303.7649" style="stroke: #383838; stroke-width: 1.0;"/><!--link getinjection to inputval--><path d="M415.3931,236.0569 C403.1101,251.7791 385.2519,274.6375 372.0489,291.5375 " fill="none" id="getinjection-inputval" style="stroke: #383838; stroke-width: 1.0;"/><polygon fill="#383838" points="368.7987,295.6977,377.4916,291.0681,371.877,291.7576,371.1875,286.1429,368.7987,295.6977" style="stroke: #383838; stroke-width: 1.0;"/><!--link getinjection to xss--><path d="M443.795,236.0569 C456.2418,251.7791 474.338,274.6375 487.7172,291.5375 " fill="none" id="getinjection-xss" style="stroke: #383838; stroke-width: 1.0;"/><polygon fill="#383838" points="491.0107,295.6977,488.5605,286.1585,487.9072,291.7775,482.2882,291.1241,491.0107,295.6977" style="stroke: #383838; stroke-width: 1.0;"/><!--link getinjection to csrf--><path d="M458.6543,236.0569 C486.9564,253.5859 529.5808,279.9855 557.2263,297.1079 " fill="none" id="getinjection-csrf" style="stroke: #383838; stroke-width: 1.0;"/><polygon fill="#383838" points="561.5302,299.7735,555.9853,291.6339,557.2795,297.1407,551.7727,298.4349,561.5302,299.7735" style="stroke: #383838; stroke-width: 1.0;"/><!--link inputval to and--><path d="M354.5,332.1511 C354.5,353.1164 354.5,387.1907 354.5,406.48 " fill="none" id="inputval-and" style="stroke: #383838; stroke-width: 1.0;"/><polygon fill="#383838" points="354.5,411.9608,358.5,402.9608,354.5,406.9608,350.5,402.9608,354.5,411.9608" style="stroke: #383838; stroke-width: 1.0;"/><!--link and to authbypass--><path d="M347.7645,430.1228 C335.5403,446.6796 309.3729,482.1215 292.1107,505.502 " fill="none" id="and-authbypass" style="stroke: #383838; stroke-width: 1.0;"/><polygon fill="#383838" points="288.9964,509.72,297.56,504.8554,291.9662,505.6975,291.124,500.1037,288.9964,509.72" style="stroke: #383838; stroke-width: 1.0;"/><!--link and to luck--><path d="M361.2355,430.1228 C373.4597,446.6796 399.6271,482.1215 416.8893,505.502 " fill="none" id="and-luck" style="stroke: #383838; stroke-width: 1.0;"/><polygon fill="#383838" points="420.0036,509.72,417.876,500.1037,417.0338,505.6975,411.44,504.8554,420.0036,509.72" style="stroke: #383838; stroke-width: 1.0;"/><!--link authbypass to another--><path d="M275.5,546.0568 C275.5,561.1746 275.5,583.0194 275.5,600.4959 " fill="none" id="authbypass-another" style="stroke: #383838; stroke-width: 1.0;"/><polygon fill="#383838" points="275.5,605.7672,279.5,596.7672,275.5,600.7672,271.5,596.7672,275.5,605.7672" style="stroke: #383838; stroke-width: 1.0;"/><!--
@startuml
skinparam monochrome true
skinparam defaultTextAlignment center

agent "User Data" as goal

agent "Abuse business logic" as bizlogic
agent "Brute Force" as bruteforce
agent "Front end vulnerability" as frontend

goal - -> bizlogic
goal - -> bruteforce
goal - -> frontend


agent "Check for injections" as getinjection
frontend - -> getinjection
agent "sqli" as sqli
agent "improper input validation" as inputval
agent "xss" as xss
agent "csrf" as csrf 
getinjection - -> sqli
getinjection - -> inputval
getinjection - -> xss
getinjection - -> csrf 

interface "and" as and
inputval - -> and

agent "Authentication Bypass" as authbypass
agent "No luck" as luck
and - -> authbypass
and - -> luck

cloud "Database" as another
authbypass - -> another
@enduml

PlantUML version 1.2019.04(Fri Mar 29 15:44:36 UTC 2019)
(GPL source distribution)
Java Runtime: OpenJDK Runtime Environment
JVM: OpenJDK 64-Bit Server VM
Java Version: 1.8.0_201-heroku-b09
Operating System: Linux
OS Version: 4.4.0-1048-aws
Default Encoding: UTF-8
Language: en
Country: US
--></g></svg>